# xmcd CD database file
#
# Track frame offsets:
#	150
#	13142
#	31587
#	50107
#	63672
#	85500
#	108487
#	132035
#	150780
#	164272
#	178825
#	190535
#	206120
#	214005
#	229862
#	240640
#
# Disc length: 3637 seconds
#
# Revision: 4
# Processed by: cddbd v1.5.1PL0 Copyright (c) Steve Scherf et al.
# Submitted via: CDex 1.51
#
DISCID=cd0e3310
DTITLE=Various Artist - エリーゼのために ピアノ名曲集
DYEAR=1900
DGENRE=Classical
TTITLE0=ラルゴ／ヘンデル
TTITLE1=わすれな草／リヒナー
TTITLE2=アニトラの踊り／グリーク
TTITLE3=アマリリス／ギース
TTITLE4=アルプスの鐘／オースティン
TTITLE5=アルプスの山小舎にて／ランゲ
TTITLE6=アルプスの夕映え／オースティン
TTITLE7=舟歌／チャイコフスキー
TTITLE8=ヴェニスの舟歌／メンデルスゾーン
TTITLE9=歌の翼に／メンデルスゾーン
TTITLE10=エコセーズ／ベートーベン
TTITLE11=エリーゼのために／ベートーベン
TTITLE12=かっこう／ダカン
TTITLE13=金婚式／マリー
TTITLE14=ホフマンの舟歌／ハイドン
TTITLE15=セレナーデ／ハイドン
EXTD=
EXTT0=
EXTT1=
EXTT2=
EXTT3=
EXTT4=
EXTT5=
EXTT6=
EXTT7=
EXTT8=
EXTT9=
EXTT10=
EXTT11=
EXTT12=
EXTT13=
EXTT14=
EXTT15=
PLAYORDER=
